<?xml version="1.0" standalone="no"?>
<!DOCTYPE svg PUBLIC "-//W3C//DTD SVG 20010904//EN"
 "http://www.w3.org/TR/2001/REC-SVG-20010904/DTD/svg10.dtd">
<svg version="1.0" xmlns="http://www.w3.org/2000/svg"
 width="1000.000000pt" height="978.000000pt" viewBox="0 0 1000.000000 978.000000"
 preserveAspectRatio="xMidYMid meet">
<metadata>
Created by potrace 1.12, written by Peter Selinger 2001-2015
</metadata>
<g transform="translate(0.000000,978.000000) scale(0.100000,-0.100000)"
fill="#cccccc" stroke="none">
<path d="M0 4890 l0 -4890 5000 0 5000 0 0 4890 0 4890 -5000 0 -5000 0 0
-4890z m5250 3456 c346 -34 707 -87 990 -145 208 -43 552 -176 758 -293 271
-154 384 -322 541 -802 132 -404 241 -1197 258 -1871 5 -226 -9 -650 -24 -712
-7 -31 -266 -260 -513 -453 -564 -440 -1185 -796 -1850 -1060 -201 -79 -470
-174 -477 -167 -3 3 9 140 26 304 87 836 131 1597 131 2258 0 398 -9 586 -40
900 -95 934 -260 1446 -564 1751 -125 125 -297 226 -456 269 -40 11 -42 13
-20 19 113 28 958 30 1240 2z m-1656 -361 c185 -33 334 -95 463 -192 303 -228
487 -700 587 -1503 59 -475 61 -512 61 -1155 0 -366 -5 -686 -13 -820 -39
-663 -118 -1565 -139 -1586 -8 -8 -153 -44 -333 -84 -724 -160 -1504 -206
-2100 -124 -80 11 -161 24 -180 28 -19 5 -47 12 -61 15 -68 15 -199 291 -308
651 -75 245 -155 752 -197 1255 -31 356 -19 1226 17 1315 5 13 8 15 9 5 1 -29
90 -222 145 -315 222 -377 563 -636 905 -686 364 -53 804 123 1136 455 262
263 444 635 589 1201 55 216 135 594 135 640 0 39 -27 84 -55 91 -110 27 -278
-101 -472 -361 -116 -154 -155 -222 -156 -271 -1 -39 27 -74 58 -74 33 0 99
25 142 55 21 14 39 22 41 17 4 -14 -56 -267 -98 -410 -84 -285 -194 -536 -292
-667 -88 -116 -224 -207 -399 -266 -129 -44 -291 -51 -422 -20 -270 64 -513
251 -712 546 -68 102 -161 298 -184 392 -48 189 -9 682 81 1012 50 183 157
431 215 498 69 80 319 202 567 277 133 41 343 82 486 96 127 12 374 4 484 -15z
m4121 -3988 c-74 -507 -124 -719 -242 -1032 -172 -453 -313 -576 -933 -815
-159 -61 -195 -71 -380 -104 -450 -79 -801 -121 -1271 -151 l-96 -6 23 143
c13 78 33 217 45 308 l22 166 121 43 c866 309 1688 767 2384 1327 98 78 215
176 262 217 47 41 86 74 87 73 1 -1 -9 -77 -22 -169z m-3195 -1613 c0 -11 -61
-440 -66 -467 l-6 -28 -116 2 c-370 7 -1060 92 -1451 179 -136 30 -149 39 -63
39 343 3 1011 106 1487 230 198 51 215 55 215 45z"/>
</g>
</svg>
